<?xml version="1.0" encoding="UTF-8" standalone="no"?>
<svg width="310px" height="337px" viewBox="0 0 310 337" version="1.1" xmlns="http://www.w3.org/2000/svg" xmlns:xlink="http://www.w3.org/1999/xlink" >
    
    <title>chart-overall-e</title>
    <style>@import url(http://fonts.googleapis.com/css?family=Open+Sans:300);</style>
    <description></description>
    <defs></defs>
    <g id="Maia-template" stroke="none" stroke-width="1" fill="none" fill-rule="evenodd">
        <g id="chart-overall-e">
            <g id="Group" transform="translate(93.984484, 151.950789) rotate(-35.000000) translate(-93.984484, -151.950789) translate(14.984484, 71.950789)">
                <path d="M80.5,158 C123.302068,158 158,123.302068 158,80.5 C158,37.6979319 123.302068,3 80.5,3 C37.6979319,3 3,37.6979319 3,80.5 C3,123.302068 37.6979319,158 80.5,158 Z" id="Oval-18" fill="#5E97F6"></path>
                <path d="M81.167399,157.797989 C47.5993274,158.240896 16.3760117,136.664819 6.06619694,102.942934 C-6.44791668,62.0111127 16.5891871,18.684622 57.5210084,6.17050834 C98.4528297,-6.34360528 141.77932,16.6934985 154.293434,57.6253198 C154.340222,57.7783564 154.386513,57.9314264 154.432308,58.0845282 L80.9939294,80.3547142 L81.167399,157.797989 L81.167399,157.797989 Z" id="Oval-17" fill="#4285F4" transform="translate(78.659261, 80.263573) rotate(-2.000000) translate(-78.659261, -80.263573) "></path>
                <path d="M146.01037,37.0947247 C149.737219,43.1058406 152.687391,49.6094447 154.757365,56.3800268 L78.252985,79.7697632 L146.01037,37.0947247 L146.01037,37.0947247 Z" id="Fill-3" fill="#7BAAF7"></path>
                <path d="M137.088751,25.2167421 C140.64789,29.0538935 143.669504,33.0105278 146.436599,37.4605024 L78.7079353,79.9666458 L137.088751,25.2167421 L137.088751,25.2167421 Z" id="Fill-5" fill="#A1C2FA"></path>
                <path d="M131.515233,17.4538598 C134.228605,19.6485118 136.29286,21.5391298 138.717991,24.0484422 L81.1365396,79.6107706 L131.515233,17.4538598 L131.515233,17.4538598 Z" id="Fill-6" fill="#C6DAFC"></path>
                <path d="M127.702763,16.3069908 C129.105432,17.3356482 129.699316,17.7946579 131.048601,18.8959171 L81.0618573,81.0952918 L127.702763,16.3069908 L127.702763,16.3069908 Z" id="Fill-4" fill="#E8F0FE"></path>
            </g>
            <path d="M95.5,243 C146.034055,243 187,202.034055 187,151.5 C187,100.965945 146.034055,60 95.5,60 C44.9659454,60 4,100.965945 4,151.5 C4,202.034055 44.9659454,243 95.5,243 L95.5,243 L95.5,243 Z M95.5,74 C52.6979319,74 18,108.697932 18,151.5 C18,194.302068 52.6979319,229 95.5,229 C138.302068,229 173,194.302068 173,151.5 C173,108.697932 138.302068,74 95.5,74 Z" id="Oval-16" fill="#EEEEEE"></path>
            <path d="M95.5,203 C123.942665,203 147,179.942665 147,151.5 C147,123.057335 123.942665,100 95.5,100 C67.0573354,100 44,123.057335 44,151.5 C44,179.942665 67.0573354,203 95.5,203 Z" id="Oval-13" fill="#FAFAFA"></path>
            <g id="Ethnicity" transform="translate(-80.000000, 9.000000)">
                <path d="M385,-2.22044605e-16 L277.645201,-2.22044605e-16 L260.984332,28.9772272 L181,29" id="Line" stroke="#EBEBEB" stroke-linecap="square"></path>
                <path d="M385,55 L290.329279,55 L280,38 L192,38" id="Line" stroke="#EBEBEB" stroke-linecap="square"></path>
                <path d="M384,111 L307.895186,111 L268.968406,49 L206,49" id="Line" stroke="#EBEBEB" stroke-linecap="square"></path>
                <path d="M385,166 L320.530828,166 L257.461173,61 L232,61" id="Line" stroke="#EBEBEB" stroke-linecap="square"></path>
                <path d="M385,220 L291.993421,220 L282,204 L250,204" id="Line" stroke="#EBEBEB" stroke-linecap="square"></path>
                <path d="M387,276 L250.327771,276 L223.61871,234 L202,234" id="Line" stroke="#EBEBEB" stroke-linecap="square"></path>
                <g id="61%-+-White" transform="translate(341.000000, 277.000000)" font-family="Open Sans" font-weight="300">
                    <text id="61%" font-size="24" fill="#4285F4">
                        <tspan x="0" y="40">61%</tspan>
                    </text>
                    <text id="White" font-size="13" fill="#444444">
                        <tspan x="10" y="14">White</tspan>
                    </text>
                </g>
                <g id="30%-+-Asian" transform="translate(341.000000, 221.000000)" font-family="Open Sans" font-weight="300">
                    <text id="30%" font-size="24" fill="#4285F4">
                        <tspan x="0" y="40">30%</tspan>
                    </text>
                    <text id="Asian" font-size="13" fill="#444444">
                        <tspan x="13" y="14">Asian</tspan>
                    </text>
                </g>
                <g id="2%-+-Black" transform="translate(355.000000, 56.000000)" font-family="Open Sans" font-weight="300">
                    <text id="2%" font-size="24" fill="#4285F4">
                        <tspan x="0" y="41">2%</tspan>
                    </text>
                    <text id="Black" font-size="13" fill="#444444">
                        <tspan x="0" y="14">Black</tspan>
                    </text>
                </g>
                <path id="Stroke-28" stroke="#797979"></path>
                <g id="3%-+-Hispanic" transform="translate(336.000000, 112.000000)" font-family="Open Sans" font-weight="300">
                    <text id="3%" font-size="24" fill="#4285F4">
                        <tspan x="19" y="40">3%</tspan>
                    </text>
                    <text id="Hispanic" font-size="13" fill="#444444">
                        <tspan x="0" y="14">Hispanic</tspan>
                    </text>
                </g>
                <g id="&lt;1%-+-Other" transform="translate(341.000000, 1.000000)" font-family="Open Sans" font-weight="300">
                    <text id="&lt;1%" font-size="24" fill="#4285F4">
                        <tspan x="0" y="40">&lt;1%</tspan>
                    </text>
                    <text id="Other" font-size="13" fill="#444444">
                        <tspan x="10" y="14">Other</tspan>
                    </text>
                </g>
                <g id="4%-+-Two-or-more-races" transform="translate(277.000000, 167.000000)" font-family="Open Sans" font-weight="300">
                    <text id="4%" font-size="24" fill="#4285F4">
                        <tspan x="78" y="39">4%</tspan>
                    </text>
                    <text id="Two-or-more-races" font-size="13" fill="#444444">
                        <tspan x="0" y="14">Two or more races</tspan>
                    </text>
                </g>
            </g>
            <text id="Ethnicity" font-family="Open Sans" font-size="13" font-weight="300" fill="#616161">
                <tspan x="70" y="156">Ethnicity</tspan>
            </text>
        </g>
    </g>
</svg>